<?xml version="1.0" encoding="UTF-8" standalone="no"?>
<!DOCTYPE svg PUBLIC "-//W3C//DTD SVG 1.1//EN"
 "http://www.w3.org/Graphics/SVG/1.1/DTD/svg11.dtd">
<!-- Generated by graphviz version 8.0.5 (20230430.1635)
 -->
<!-- Title: dependency&#45;cruiser output Pages: 1 -->
<svg width="629pt" height="480pt"
 viewBox="0.00 0.00 628.75 480.00" xmlns="http://www.w3.org/2000/svg" xmlns:xlink="http://www.w3.org/1999/xlink">
<g id="graph0" class="graph" transform="scale(1 1) rotate(0) translate(4 476)">
<title>dependency&#45;cruiser output</title>
<polygon fill="white" stroke="none" points="-4,4 -4,-476 624.75,-476 624.75,4 -4,4"/>
<g id="clust1" class="cluster">
<title>cluster_src</title>
<path fill="#ffffff" stroke="black" stroke-width="2" d="M20,-8C20,-8 600.75,-8 600.75,-8 606.75,-8 612.75,-14 612.75,-20 612.75,-20 612.75,-452 612.75,-452 612.75,-458 606.75,-464 600.75,-464 600.75,-464 20,-464 20,-464 14,-464 8,-458 8,-452 8,-452 8,-20 8,-20 8,-14 14,-8 20,-8"/>
<text text-anchor="middle" x="310.38" y="-451.45" font-family="Helvetica,sans-Serif" font-weight="bold" font-size="9.00">src</text>
</g>
<g id="clust2" class="cluster">
<title>cluster_src/Components</title>
<path fill="#ffffff" stroke="black" stroke-width="2" d="M192.75,-16C192.75,-16 592.75,-16 592.75,-16 598.75,-16 604.75,-22 604.75,-28 604.75,-28 604.75,-386 604.75,-386 604.75,-392 598.75,-398 592.75,-398 592.75,-398 192.75,-398 192.75,-398 186.75,-398 180.75,-392 180.75,-386 180.75,-386 180.75,-28 180.75,-28 180.75,-22 186.75,-16 192.75,-16"/>
<text text-anchor="middle" x="392.75" y="-385.45" font-family="Helvetica,sans-Serif" font-weight="bold" font-size="9.00">Components</text>
</g>
<g id="clust3" class="cluster">
<title>cluster_src/Components/redux</title>
<path fill="#ffffff" stroke="black" stroke-width="2" d="M502.5,-114C502.5,-114 584.75,-114 584.75,-114 590.75,-114 596.75,-120 596.75,-126 596.75,-126 596.75,-334 596.75,-334 596.75,-340 590.75,-346 584.75,-346 584.75,-346 502.5,-346 502.5,-346 496.5,-346 490.5,-340 490.5,-334 490.5,-334 490.5,-126 490.5,-126 490.5,-120 496.5,-114 502.5,-114"/>
<text text-anchor="middle" x="543.62" y="-333.45" font-family="Helvetica,sans-Serif" font-weight="bold" font-size="9.00">redux</text>
</g>
<g id="clust4" class="cluster">
<title>cluster_src/Components/styles</title>
<path fill="#ffffff" stroke="black" stroke-width="2" d="M516.38,-24C516.38,-24 570.88,-24 570.88,-24 576.88,-24 582.88,-30 582.88,-36 582.88,-36 582.88,-94 582.88,-94 582.88,-100 576.88,-106 570.88,-106 570.88,-106 516.38,-106 516.38,-106 510.38,-106 504.38,-100 504.38,-94 504.38,-94 504.38,-36 504.38,-36 504.38,-30 510.38,-24 516.38,-24"/>
<text text-anchor="middle" x="543.62" y="-93.45" font-family="Helvetica,sans-Serif" font-weight="bold" font-size="9.00">styles</text>
</g>
<g id="clust5" class="cluster">
<title>cluster_src/types</title>
<path fill="#ffffff" stroke="black" stroke-width="2" d="M35.75,-386C35.75,-386 85.75,-386 85.75,-386 91.75,-386 97.75,-392 97.75,-398 97.75,-398 97.75,-426 97.75,-426 97.75,-432 91.75,-438 85.75,-438 85.75,-438 35.75,-438 35.75,-438 29.75,-438 23.75,-432 23.75,-426 23.75,-426 23.75,-398 23.75,-398 23.75,-392 29.75,-386 35.75,-386"/>
<text text-anchor="middle" x="60.75" y="-425.45" font-family="Helvetica,sans-Serif" font-weight="bold" font-size="9.00">types</text>
</g>
<!-- src/App.css -->
<g id="node1" class="node">
<title>src/App.css</title>
<g id="a_node1"><a xlink:href="src/App.css" xlink:title="App.css">
<path fill="#ffffcc" stroke="black" d="M253.08,-423.88C253.08,-423.88 210.92,-423.88 210.92,-423.88 207.96,-423.88 205,-420.92 205,-417.96 205,-417.96 205,-412.04 205,-412.04 205,-409.08 207.96,-406.12 210.92,-406.12 210.92,-406.12 253.08,-406.12 253.08,-406.12 256.04,-406.12 259,-409.08 259,-412.04 259,-412.04 259,-417.96 259,-417.96 259,-420.92 256.04,-423.88 253.08,-423.88"/>
<text text-anchor="start" x="215.88" y="-411.32" font-family="Helvetica,sans-Serif" font-size="9.00">App.css</text>
</a>
</g>
</g>
<!-- src/App.tsx -->
<g id="node2" class="node">
<title>src/App.tsx</title>
<g id="a_node2"><a xlink:href="src/App.tsx" xlink:title="App.tsx">
<path fill="#bbfeff" stroke="black" d="M166.71,-311.88C166.71,-311.88 124.54,-311.88 124.54,-311.88 121.58,-311.88 118.62,-308.92 118.62,-305.96 118.62,-305.96 118.62,-300.04 118.62,-300.04 118.62,-297.08 121.58,-294.12 124.54,-294.12 124.54,-294.12 166.71,-294.12 166.71,-294.12 169.67,-294.12 172.62,-297.08 172.62,-300.04 172.62,-300.04 172.62,-305.96 172.62,-305.96 172.62,-308.92 169.67,-311.88 166.71,-311.88"/>
<text text-anchor="start" x="130.62" y="-299.32" font-family="Helvetica,sans-Serif" font-size="9.00">App.tsx</text>
</a>
</g>
</g>
<!-- src/App.tsx&#45;&gt;src/App.css -->
<g id="edge1" class="edge">
<title>src/App.tsx&#45;&gt;src/App.css</title>
<path fill="none" stroke="#000000" stroke-width="2" stroke-opacity="0.200000" d="M147.1,-312.35C148.61,-331.77 154.87,-376.71 180.75,-401 185.1,-405.08 190.53,-407.99 196.21,-410.06"/>
<polygon fill="#000000" fill-opacity="0.200000" stroke="#000000" stroke-width="2" stroke-opacity="0.200000" points="196.25,-412.85 202.6,-412.52 197.44,-408.82 196.25,-412.85"/>
</g>
<!-- src/Components/ChannelCard.tsx -->
<g id="node3" class="node">
<title>src/Components/ChannelCard.tsx</title>
<g id="a_node3"><a xlink:href="src/Components/ChannelCard.tsx" xlink:title="ChannelCard.tsx">
<path fill="#bbfeff" stroke="black" d="M468.71,-237.88C468.71,-237.88 395.54,-237.88 395.54,-237.88 392.58,-237.88 389.62,-234.92 389.62,-231.96 389.62,-231.96 389.62,-226.04 389.62,-226.04 389.62,-223.08 392.58,-220.12 395.54,-220.12 395.54,-220.12 468.71,-220.12 468.71,-220.12 471.67,-220.12 474.62,-223.08 474.62,-226.04 474.62,-226.04 474.62,-231.96 474.62,-231.96 474.62,-234.92 471.67,-237.88 468.71,-237.88"/>
<text text-anchor="start" x="397.62" y="-225.32" font-family="Helvetica,sans-Serif" font-size="9.00">ChannelCard.tsx</text>
</a>
</g>
</g>
<!-- src/App.tsx&#45;&gt;src/Components/ChannelCard.tsx -->
<g id="edge2" class="edge">
<title>src/App.tsx&#45;&gt;src/Components/ChannelCard.tsx</title>
<path fill="none" stroke="#000000" stroke-width="2" stroke-opacity="0.200000" d="M169.99,-293.66C173.57,-292.36 177.24,-291.09 180.75,-290 249.2,-268.71 330.05,-250.18 380.96,-239.29"/>
<polygon fill="#000000" fill-opacity="0.200000" stroke="#000000" stroke-width="2" stroke-opacity="0.200000" points="382.06,-240.78 387.49,-237.47 381.18,-236.67 382.06,-240.78"/>
</g>
<!-- src/Components/DirectoryCard.tsx -->
<g id="node4" class="node">
<title>src/Components/DirectoryCard.tsx</title>
<g id="a_node4"><a xlink:href="src/Components/DirectoryCard.tsx" xlink:title="DirectoryCard.tsx">
<path fill="#bbfeff" stroke="black" d="M269.33,-347.88C269.33,-347.88 194.67,-347.88 194.67,-347.88 191.71,-347.88 188.75,-344.92 188.75,-341.96 188.75,-341.96 188.75,-336.04 188.75,-336.04 188.75,-333.08 191.71,-330.12 194.67,-330.12 194.67,-330.12 269.33,-330.12 269.33,-330.12 272.29,-330.12 275.25,-333.08 275.25,-336.04 275.25,-336.04 275.25,-341.96 275.25,-341.96 275.25,-344.92 272.29,-347.88 269.33,-347.88"/>
<text text-anchor="start" x="196.75" y="-335.32" font-family="Helvetica,sans-Serif" font-size="9.00">DirectoryCard.tsx</text>
</a>
</g>
</g>
<!-- src/App.tsx&#45;&gt;src/Components/DirectoryCard.tsx -->
<g id="edge3" class="edge">
<title>src/App.tsx&#45;&gt;src/Components/DirectoryCard.tsx</title>
<path fill="none" stroke="#000000" stroke-width="2" stroke-opacity="0.200000" d="M158.35,-312.37C164.68,-317.03 172.8,-322.42 180.75,-326 181.12,-326.17 181.49,-326.33 181.87,-326.49"/>
<polygon fill="#000000" fill-opacity="0.200000" stroke="#000000" stroke-width="2" stroke-opacity="0.200000" points="181.65,-328.44 188.01,-328.65 183.17,-324.52 181.65,-328.44"/>
</g>
<!-- src/Components/Loading.tsx -->
<g id="node5" class="node">
<title>src/Components/Loading.tsx</title>
<g id="a_node5"><a xlink:href="src/Components/Loading.tsx" xlink:title="Loading.tsx">
<path fill="#bbfeff" stroke="black" d="M457.83,-163.88C457.83,-163.88 406.42,-163.88 406.42,-163.88 403.46,-163.88 400.5,-160.92 400.5,-157.96 400.5,-157.96 400.5,-152.04 400.5,-152.04 400.5,-149.08 403.46,-146.12 406.42,-146.12 406.42,-146.12 457.83,-146.12 457.83,-146.12 460.79,-146.12 463.75,-149.08 463.75,-152.04 463.75,-152.04 463.75,-157.96 463.75,-157.96 463.75,-160.92 460.79,-163.88 457.83,-163.88"/>
<text text-anchor="start" x="408.5" y="-151.32" font-family="Helvetica,sans-Serif" font-size="9.00">Loading.tsx</text>
</a>
</g>
</g>
<!-- src/App.tsx&#45;&gt;src/Components/Loading.tsx -->
<g id="edge4" class="edge">
<title>src/App.tsx&#45;&gt;src/Components/Loading.tsx</title>
<path fill="none" stroke="#000000" stroke-width="2" stroke-opacity="0.200000" d="M152.17,-293.92C158.22,-284.63 168.68,-270.27 180.75,-261 246.23,-210.73 339.09,-179.68 391.36,-165.04"/>
<polygon fill="#000000" fill-opacity="0.200000" stroke="#000000" stroke-width="2" stroke-opacity="0.200000" points="392.79,-166.28 398.02,-162.67 391.67,-162.23 392.79,-166.28"/>
</g>
<!-- src/Components/MainNav.tsx -->
<g id="node6" class="node">
<title>src/Components/MainNav.tsx</title>
<g id="a_node6"><a xlink:href="src/Components/MainNav.tsx" xlink:title="MainNav.tsx">
<path fill="#bbfeff" stroke="black" d="M459.33,-327.88C459.33,-327.88 404.92,-327.88 404.92,-327.88 401.96,-327.88 399,-324.92 399,-321.96 399,-321.96 399,-316.04 399,-316.04 399,-313.08 401.96,-310.12 404.92,-310.12 404.92,-310.12 459.33,-310.12 459.33,-310.12 462.29,-310.12 465.25,-313.08 465.25,-316.04 465.25,-316.04 465.25,-321.96 465.25,-321.96 465.25,-324.92 462.29,-327.88 459.33,-327.88"/>
<text text-anchor="start" x="407" y="-315.32" font-family="Helvetica,sans-Serif" font-size="9.00">MainNav.tsx</text>
</a>
</g>
</g>
<!-- src/App.tsx&#45;&gt;src/Components/MainNav.tsx -->
<g id="edge5" class="edge">
<title>src/App.tsx&#45;&gt;src/Components/MainNav.tsx</title>
<path fill="none" stroke="#000000" stroke-width="2" stroke-opacity="0.200000" d="M172.98,-303.75C214.6,-305.04 298.09,-308.01 368.75,-313 375.62,-313.48 382.9,-314.1 389.98,-314.74"/>
<polygon fill="#000000" fill-opacity="0.200000" stroke="#000000" stroke-width="2" stroke-opacity="0.200000" points="389.61,-317.1 395.78,-315.57 390,-312.92 389.61,-317.1"/>
</g>
<!-- src/Components/RemoveWarn.tsx -->
<g id="node7" class="node">
<title>src/Components/RemoveWarn.tsx</title>
<g id="a_node7"><a xlink:href="src/Components/RemoveWarn.tsx" xlink:title="RemoveWarn.tsx">
<path fill="#bbfeff" stroke="black" d="M468.71,-297.88C468.71,-297.88 395.54,-297.88 395.54,-297.88 392.58,-297.88 389.62,-294.92 389.62,-291.96 389.62,-291.96 389.62,-286.04 389.62,-286.04 389.62,-283.08 392.58,-280.12 395.54,-280.12 395.54,-280.12 468.71,-280.12 468.71,-280.12 471.67,-280.12 474.62,-283.08 474.62,-286.04 474.62,-286.04 474.62,-291.96 474.62,-291.96 474.62,-294.92 471.67,-297.88 468.71,-297.88"/>
<text text-anchor="start" x="397.62" y="-285.32" font-family="Helvetica,sans-Serif" font-size="9.00">RemoveWarn.tsx</text>
</a>
</g>
</g>
<!-- src/App.tsx&#45;&gt;src/Components/RemoveWarn.tsx -->
<g id="edge6" class="edge">
<title>src/App.tsx&#45;&gt;src/Components/RemoveWarn.tsx</title>
<path fill="none" stroke="#000000" stroke-width="2" stroke-opacity="0.200000" d="M173.06,-299.7C175.66,-299.44 178.25,-299.2 180.75,-299 249.89,-293.57 330.02,-291.03 380.64,-289.88"/>
<polygon fill="#000000" fill-opacity="0.200000" stroke="#000000" stroke-width="2" stroke-opacity="0.200000" points="380.47,-291.92 386.42,-289.69 380.38,-287.72 380.47,-291.92"/>
</g>
<!-- src/Components/ServerStateCard.tsx -->
<g id="node8" class="node">
<title>src/Components/ServerStateCard.tsx</title>
<g id="a_node8"><a xlink:href="src/Components/ServerStateCard.tsx" xlink:title="ServerStateCard.tsx">
<path fill="#bbfeff" stroke="black" d="M475.08,-133.88C475.08,-133.88 389.17,-133.88 389.17,-133.88 386.21,-133.88 383.25,-130.92 383.25,-127.96 383.25,-127.96 383.25,-122.04 383.25,-122.04 383.25,-119.08 386.21,-116.12 389.17,-116.12 389.17,-116.12 475.08,-116.12 475.08,-116.12 478.04,-116.12 481,-119.08 481,-122.04 481,-122.04 481,-127.96 481,-127.96 481,-130.92 478.04,-133.88 475.08,-133.88"/>
<text text-anchor="start" x="391.25" y="-121.33" font-family="Helvetica,sans-Serif" font-size="9.00">ServerStateCard.tsx</text>
</a>
</g>
</g>
<!-- src/App.tsx&#45;&gt;src/Components/ServerStateCard.tsx -->
<g id="edge7" class="edge">
<title>src/App.tsx&#45;&gt;src/Components/ServerStateCard.tsx</title>
<path fill="none" stroke="#000000" stroke-width="2" stroke-opacity="0.200000" d="M147.16,-293.65C148.77,-274.2 155.21,-229.11 180.75,-204 232.9,-152.74 318,-134.7 374.29,-128.38"/>
<polygon fill="#000000" fill-opacity="0.200000" stroke="#000000" stroke-width="2" stroke-opacity="0.200000" points="374.31,-130.17 380.06,-127.46 373.88,-126 374.31,-130.17"/>
</g>
<!-- src/Components/UrlCard.tsx -->
<g id="node9" class="node">
<title>src/Components/UrlCard.tsx</title>
<g id="a_node9"><a xlink:href="src/Components/UrlCard.tsx" xlink:title="UrlCard.tsx">
<path fill="#bbfeff" stroke="black" d="M457.08,-357.88C457.08,-357.88 407.17,-357.88 407.17,-357.88 404.21,-357.88 401.25,-354.92 401.25,-351.96 401.25,-351.96 401.25,-346.04 401.25,-346.04 401.25,-343.08 404.21,-340.12 407.17,-340.12 407.17,-340.12 457.08,-340.12 457.08,-340.12 460.04,-340.12 463,-343.08 463,-346.04 463,-346.04 463,-351.96 463,-351.96 463,-354.92 460.04,-357.88 457.08,-357.88"/>
<text text-anchor="start" x="409.25" y="-345.32" font-family="Helvetica,sans-Serif" font-size="9.00">UrlCard.tsx</text>
</a>
</g>
</g>
<!-- src/App.tsx&#45;&gt;src/Components/UrlCard.tsx -->
<g id="edge8" class="edge">
<title>src/App.tsx&#45;&gt;src/Components/UrlCard.tsx</title>
<path fill="none" stroke="#000000" stroke-width="2" stroke-opacity="0.200000" d="M173.04,-307.9C175.64,-308.3 178.24,-308.68 180.75,-309 222.32,-314.3 329.64,-308.94 368.75,-324 375.55,-326.62 375.27,-330.66 381.75,-334 385.2,-335.78 388.9,-337.38 392.67,-338.82"/>
<polygon fill="#000000" fill-opacity="0.200000" stroke="#000000" stroke-width="2" stroke-opacity="0.200000" points="392.58,-341.72 398.94,-341.72 393.97,-337.76 392.58,-341.72"/>
</g>
<!-- src/store.ts -->
<g id="node10" class="node">
<title>src/store.ts</title>
<g id="a_node10"><a xlink:href="src/store.ts" xlink:title="store.ts">
<path fill="#ddfeff" stroke="black" d="M564.71,-423.88C564.71,-423.88 522.54,-423.88 522.54,-423.88 519.58,-423.88 516.62,-420.92 516.62,-417.96 516.62,-417.96 516.62,-412.04 516.62,-412.04 516.62,-409.08 519.58,-406.12 522.54,-406.12 522.54,-406.12 564.71,-406.12 564.71,-406.12 567.67,-406.12 570.62,-409.08 570.62,-412.04 570.62,-412.04 570.62,-417.96 570.62,-417.96 570.62,-420.92 567.67,-423.88 564.71,-423.88"/>
<text text-anchor="start" x="529" y="-411.32" font-family="Helvetica,sans-Serif" font-size="9.00">store.ts</text>
</a>
</g>
</g>
<!-- src/Components/ChannelCard.tsx&#45;&gt;src/store.ts -->
<g id="edge9" class="edge">
<title>src/Components/ChannelCard.tsx&#45;&gt;src/store.ts</title>
<path fill="none" stroke="#000000" stroke-width="2" stroke-opacity="0.200000" d="M475,-237.27C477.84,-239.1 480.4,-241.32 482.5,-244 504.01,-271.53 468.54,-373.83 490.5,-401 494.89,-406.43 501.14,-409.89 507.8,-412.06"/>
<polygon fill="#000000" fill-opacity="0.200000" stroke="#000000" stroke-width="2" stroke-opacity="0.200000" points="508.01,-414.77 514.34,-414.17 509.02,-410.69 508.01,-414.77"/>
</g>
<!-- src/Components/redux/ChannelSlice.ts -->
<g id="node11" class="node">
<title>src/Components/redux/ChannelSlice.ts</title>
<g id="a_node11"><a xlink:href="src/Components/redux/ChannelSlice.ts" xlink:title="ChannelSlice.ts">
<path fill="#ddfeff" stroke="black" d="M577.96,-229.88C577.96,-229.88 509.29,-229.88 509.29,-229.88 506.33,-229.88 503.38,-226.92 503.38,-223.96 503.38,-223.96 503.38,-218.04 503.38,-218.04 503.38,-215.08 506.33,-212.12 509.29,-212.12 509.29,-212.12 577.96,-212.12 577.96,-212.12 580.92,-212.12 583.88,-215.08 583.88,-218.04 583.88,-218.04 583.88,-223.96 583.88,-223.96 583.88,-226.92 580.92,-229.88 577.96,-229.88"/>
<text text-anchor="start" x="511.38" y="-217.32" font-family="Helvetica,sans-Serif" font-size="9.00">ChannelSlice.ts</text>
</a>
</g>
</g>
<!-- src/Components/ChannelCard.tsx&#45;&gt;src/Components/redux/ChannelSlice.ts -->
<g id="edge10" class="edge">
<title>src/Components/ChannelCard.tsx&#45;&gt;src/Components/redux/ChannelSlice.ts</title>
<path fill="none" stroke="#000000" stroke-width="2" stroke-opacity="0.200000" d="M474.83,-225.95C481.23,-225.49 487.88,-225 494.41,-224.52"/>
<polygon fill="#000000" fill-opacity="0.200000" stroke="#000000" stroke-width="2" stroke-opacity="0.200000" points="494.36,-226.41 500.2,-223.88 494.06,-222.22 494.36,-226.41"/>
</g>
<!-- src/Components/redux/LoadSlice.ts -->
<g id="node12" class="node">
<title>src/Components/redux/LoadSlice.ts</title>
<g id="a_node12"><a xlink:href="src/Components/redux/LoadSlice.ts" xlink:title="LoadSlice.ts">
<path fill="#ddfeff" stroke="black" d="M570.83,-259.88C570.83,-259.88 516.42,-259.88 516.42,-259.88 513.46,-259.88 510.5,-256.92 510.5,-253.96 510.5,-253.96 510.5,-248.04 510.5,-248.04 510.5,-245.08 513.46,-242.12 516.42,-242.12 516.42,-242.12 570.83,-242.12 570.83,-242.12 573.79,-242.12 576.75,-245.08 576.75,-248.04 576.75,-248.04 576.75,-253.96 576.75,-253.96 576.75,-256.92 573.79,-259.88 570.83,-259.88"/>
<text text-anchor="start" x="518.5" y="-247.32" font-family="Helvetica,sans-Serif" font-size="9.00">LoadSlice.ts</text>
</a>
</g>
</g>
<!-- src/Components/ChannelCard.tsx&#45;&gt;src/Components/redux/LoadSlice.ts -->
<g id="edge11" class="edge">
<title>src/Components/ChannelCard.tsx&#45;&gt;src/Components/redux/LoadSlice.ts</title>
<path fill="none" stroke="#000000" stroke-width="2" stroke-opacity="0.200000" d="M474.83,-237.38C483.63,-239.15 492.9,-241.01 501.66,-242.77"/>
<polygon fill="#000000" fill-opacity="0.200000" stroke="#000000" stroke-width="2" stroke-opacity="0.200000" points="501.93,-245.37 508.23,-244.49 502.76,-241.25 501.93,-245.37"/>
</g>
<!-- src/Components/redux/stateSelector.ts -->
<g id="node13" class="node">
<title>src/Components/redux/stateSelector.ts</title>
<g id="a_node13"><a xlink:href="src/Components/redux/stateSelector.ts" xlink:title="stateSelector.ts">
<path fill="#ddfeff" stroke="black" d="M576.83,-199.88C576.83,-199.88 510.42,-199.88 510.42,-199.88 507.46,-199.88 504.5,-196.92 504.5,-193.96 504.5,-193.96 504.5,-188.04 504.5,-188.04 504.5,-185.08 507.46,-182.12 510.42,-182.12 510.42,-182.12 576.83,-182.12 576.83,-182.12 579.79,-182.12 582.75,-185.08 582.75,-188.04 582.75,-188.04 582.75,-193.96 582.75,-193.96 582.75,-196.92 579.79,-199.88 576.83,-199.88"/>
<text text-anchor="start" x="512.5" y="-187.32" font-family="Helvetica,sans-Serif" font-size="9.00">stateSelector.ts</text>
</a>
</g>
</g>
<!-- src/Components/ChannelCard.tsx&#45;&gt;src/Components/redux/stateSelector.ts -->
<g id="edge12" class="edge">
<title>src/Components/ChannelCard.tsx&#45;&gt;src/Components/redux/stateSelector.ts</title>
<path fill="none" stroke="#000000" stroke-width="2" stroke-opacity="0.200000" d="M470.9,-219.66C474.94,-218.04 478.89,-216.17 482.5,-214 486.81,-211.41 486.17,-208.55 490.5,-206 492.21,-204.99 494,-204.04 495.83,-203.16"/>
<polygon fill="#000000" fill-opacity="0.200000" stroke="#000000" stroke-width="2" stroke-opacity="0.200000" points="497.41,-204.93 502.11,-200.66 495.77,-201.06 497.41,-204.93"/>
</g>
<!-- src/Components/utils.ts -->
<g id="node14" class="node">
<title>src/Components/utils.ts</title>
<g id="a_node14"><a xlink:href="src/Components/utils.ts" xlink:title="utils.ts">
<path fill="#ddfeff" stroke="black" d="M564.71,-371.88C564.71,-371.88 522.54,-371.88 522.54,-371.88 519.58,-371.88 516.62,-368.92 516.62,-365.96 516.62,-365.96 516.62,-360.04 516.62,-360.04 516.62,-357.08 519.58,-354.12 522.54,-354.12 522.54,-354.12 564.71,-354.12 564.71,-354.12 567.67,-354.12 570.62,-357.08 570.62,-360.04 570.62,-360.04 570.62,-365.96 570.62,-365.96 570.62,-368.92 567.67,-371.88 564.71,-371.88"/>
<text text-anchor="start" x="530.88" y="-359.32" font-family="Helvetica,sans-Serif" font-size="9.00">utils.ts</text>
</a>
</g>
</g>
<!-- src/Components/ChannelCard.tsx&#45;&gt;src/Components/utils.ts -->
<g id="edge13" class="edge">
<title>src/Components/ChannelCard.tsx&#45;&gt;src/Components/utils.ts</title>
<path fill="none" stroke="#000000" stroke-width="2" stroke-opacity="0.200000" d="M474.93,-237.33C477.78,-239.15 480.37,-241.34 482.5,-244 497.14,-262.26 475.56,-330.99 490.5,-349 494.92,-354.33 501.12,-357.74 507.71,-359.91"/>
<polygon fill="#000000" fill-opacity="0.200000" stroke="#000000" stroke-width="2" stroke-opacity="0.200000" points="507.84,-362.61 514.17,-362.04 508.86,-358.54 507.84,-362.61"/>
</g>
<!-- src/Components/FilterDirTree.tsx -->
<g id="node15" class="node">
<title>src/Components/FilterDirTree.tsx</title>
<g id="a_node15"><a xlink:href="src/Components/FilterDirTree.tsx" xlink:title="FilterDirTree.tsx">
<path fill="#bbfeff" stroke="black" d="M362.83,-347.88C362.83,-347.88 294.17,-347.88 294.17,-347.88 291.21,-347.88 288.25,-344.92 288.25,-341.96 288.25,-341.96 288.25,-336.04 288.25,-336.04 288.25,-333.08 291.21,-330.12 294.17,-330.12 294.17,-330.12 362.83,-330.12 362.83,-330.12 365.79,-330.12 368.75,-333.08 368.75,-336.04 368.75,-336.04 368.75,-341.96 368.75,-341.96 368.75,-344.92 365.79,-347.88 362.83,-347.88"/>
<text text-anchor="start" x="296.25" y="-335.32" font-family="Helvetica,sans-Serif" font-size="9.00">FilterDirTree.tsx</text>
</a>
</g>
</g>
<!-- src/Components/DirectoryCard.tsx&#45;&gt;src/Components/FilterDirTree.tsx -->
<g id="edge14" class="edge">
<title>src/Components/DirectoryCard.tsx&#45;&gt;src/Components/FilterDirTree.tsx</title>
<path fill="none" stroke="#000000" stroke-width="2" stroke-opacity="0.200000" d="M275.55,-339C276.71,-339 277.87,-339 279.03,-339"/>
<polygon fill="#000000" fill-opacity="0.200000" stroke="#000000" stroke-width="2" stroke-opacity="0.200000" points="278.91,-341.1 284.91,-339 278.91,-336.9 278.91,-341.1"/>
</g>
<!-- src/Components/Loading.tsx&#45;&gt;src/store.ts -->
<g id="edge24" class="edge">
<title>src/Components/Loading.tsx&#45;&gt;src/store.ts</title>
<path fill="none" stroke="#000000" stroke-width="2" stroke-opacity="0.200000" d="M459.33,-164.27C468.23,-168.8 477.25,-175.21 482.5,-184 494.87,-204.72 475.47,-382.13 490.5,-401 494.85,-406.46 501.09,-409.93 507.74,-412.1"/>
<polygon fill="#000000" fill-opacity="0.200000" stroke="#000000" stroke-width="2" stroke-opacity="0.200000" points="507.95,-414.81 514.28,-414.21 508.96,-410.74 507.95,-414.81"/>
</g>
<!-- src/Components/Loading.tsx&#45;&gt;src/Components/redux/stateSelector.ts -->
<g id="edge25" class="edge">
<title>src/Components/Loading.tsx&#45;&gt;src/Components/redux/stateSelector.ts</title>
<path fill="none" stroke="#000000" stroke-width="2" stroke-opacity="0.200000" d="M458.77,-164.3C466.41,-167.08 474.8,-170.15 482.5,-173 486.06,-174.32 486.89,-174.81 490.5,-176 493.73,-177.07 497.08,-178.13 500.46,-179.17"/>
<polygon fill="#000000" fill-opacity="0.200000" stroke="#000000" stroke-width="2" stroke-opacity="0.200000" points="500.51,-181.98 506.86,-181.7 501.72,-177.96 500.51,-181.98"/>
</g>
<!-- src/Components/styles/loading.css -->
<g id="node21" class="node">
<title>src/Components/styles/loading.css</title>
<g id="a_node21"><a xlink:href="src/Components/styles/loading.css" xlink:title="loading.css">
<path fill="#ffffcc" stroke="black" d="M568.96,-49.88C568.96,-49.88 518.29,-49.88 518.29,-49.88 515.33,-49.88 512.38,-46.92 512.38,-43.96 512.38,-43.96 512.38,-38.04 512.38,-38.04 512.38,-35.08 515.33,-32.12 518.29,-32.12 518.29,-32.12 568.96,-32.12 568.96,-32.12 571.92,-32.12 574.88,-35.08 574.88,-38.04 574.88,-38.04 574.88,-43.96 574.88,-43.96 574.88,-46.92 571.92,-49.88 568.96,-49.88"/>
<text text-anchor="start" x="520.38" y="-37.33" font-family="Helvetica,sans-Serif" font-size="9.00">loading.css</text>
</a>
</g>
</g>
<!-- src/Components/Loading.tsx&#45;&gt;src/Components/styles/loading.css -->
<g id="edge26" class="edge">
<title>src/Components/Loading.tsx&#45;&gt;src/Components/styles/loading.css</title>
<path fill="none" stroke="#000000" stroke-width="2" stroke-opacity="0.200000" d="M464.1,-151.51C471.11,-149.27 477.85,-145.69 482.5,-140 494.37,-125.48 478.52,-70.43 490.5,-56 494.05,-51.72 498.74,-48.62 503.85,-46.38"/>
<polygon fill="#000000" fill-opacity="0.200000" stroke="#000000" stroke-width="2" stroke-opacity="0.200000" points="505.14,-47.46 510.13,-43.52 503.77,-43.49 505.14,-47.46"/>
</g>
<!-- src/Components/MainNav.tsx&#45;&gt;src/store.ts -->
<g id="edge27" class="edge">
<title>src/Components/MainNav.tsx&#45;&gt;src/store.ts</title>
<path fill="none" stroke="#000000" stroke-width="2" stroke-opacity="0.200000" d="M465.54,-323.08C472,-325.34 478.13,-328.78 482.5,-334 501.76,-356.99 470.87,-378.33 490.5,-401 495.03,-406.23 501.28,-409.61 507.88,-411.77"/>
<polygon fill="#000000" fill-opacity="0.200000" stroke="#000000" stroke-width="2" stroke-opacity="0.200000" points="508,-414.47 514.34,-413.9 509.03,-410.39 508,-414.47"/>
</g>
<!-- src/Components/MainNav.tsx&#45;&gt;src/Components/redux/stateSelector.ts -->
<g id="edge28" class="edge">
<title>src/Components/MainNav.tsx&#45;&gt;src/Components/redux/stateSelector.ts</title>
<path fill="none" stroke="#000000" stroke-width="2" stroke-opacity="0.200000" d="M465.69,-315.04C472.14,-312.78 478.23,-309.3 482.5,-304 496.22,-286.99 476.66,-222.91 490.5,-206 492.18,-203.95 494.12,-202.17 496.24,-200.63"/>
<polygon fill="#000000" fill-opacity="0.200000" stroke="#000000" stroke-width="2" stroke-opacity="0.200000" points="497.85,-202 502.04,-197.23 495.78,-198.34 497.85,-202"/>
</g>
<!-- src/Components/MainNav.tsx&#45;&gt;src/Components/utils.ts -->
<g id="edge29" class="edge">
<title>src/Components/MainNav.tsx&#45;&gt;src/Components/utils.ts</title>
<path fill="none" stroke="#000000" stroke-width="2" stroke-opacity="0.200000" d="M465.51,-324.85C471.6,-327.01 477.59,-329.96 482.5,-334 488.34,-338.8 484.59,-344.3 490.5,-349 495.54,-353.01 501.64,-355.87 507.85,-357.92"/>
<polygon fill="#000000" fill-opacity="0.200000" stroke="#000000" stroke-width="2" stroke-opacity="0.200000" points="507.98,-360.68 514.32,-360.24 509.08,-356.63 507.98,-360.68"/>
</g>
<!-- src/Components/RemoveWarn.tsx&#45;&gt;src/store.ts -->
<g id="edge35" class="edge">
<title>src/Components/RemoveWarn.tsx&#45;&gt;src/store.ts</title>
<path fill="none" stroke="#000000" stroke-width="2" stroke-opacity="0.200000" d="M474.91,-297.34C477.77,-299.16 480.36,-301.35 482.5,-304 496.08,-320.83 476.64,-384.39 490.5,-401 494.93,-406.31 501.14,-409.72 507.74,-411.89"/>
<polygon fill="#000000" fill-opacity="0.200000" stroke="#000000" stroke-width="2" stroke-opacity="0.200000" points="507.86,-414.59 514.19,-414.02 508.89,-410.52 507.86,-414.59"/>
</g>
<!-- src/Components/RemoveWarn.tsx&#45;&gt;src/Components/redux/stateSelector.ts -->
<g id="edge37" class="edge">
<title>src/Components/RemoveWarn.tsx&#45;&gt;src/Components/redux/stateSelector.ts</title>
<path fill="none" stroke="#000000" stroke-width="2" stroke-opacity="0.200000" d="M474.81,-280.57C477.69,-278.78 480.32,-276.61 482.5,-274 502.02,-250.66 470.81,-229.2 490.5,-206 492.21,-203.98 494.18,-202.22 496.32,-200.7"/>
<polygon fill="#000000" fill-opacity="0.200000" stroke="#000000" stroke-width="2" stroke-opacity="0.200000" points="497.95,-202.09 502.18,-197.34 495.91,-198.41 497.95,-202.09"/>
</g>
<!-- src/Components/RemoveWarn.tsx&#45;&gt;src/Components/utils.ts -->
<g id="edge38" class="edge">
<title>src/Components/RemoveWarn.tsx&#45;&gt;src/Components/utils.ts</title>
<path fill="none" stroke="#000000" stroke-width="2" stroke-opacity="0.200000" d="M475.1,-297.85C477.84,-299.56 480.36,-301.59 482.5,-304 495.98,-319.19 476.77,-334.03 490.5,-349 495.13,-354.05 501.37,-357.36 507.92,-359.51"/>
<polygon fill="#000000" fill-opacity="0.200000" stroke="#000000" stroke-width="2" stroke-opacity="0.200000" points="507.95,-362.19 514.28,-361.65 508.99,-358.13 507.95,-362.19"/>
</g>
<!-- src/Components/redux/AlertSlice.ts -->
<g id="node17" class="node">
<title>src/Components/redux/AlertSlice.ts</title>
<g id="a_node17"><a xlink:href="src/Components/redux/AlertSlice.ts" xlink:title="AlertSlice.ts">
<path fill="#ddfeff" stroke="black" d="M569.71,-289.88C569.71,-289.88 517.54,-289.88 517.54,-289.88 514.58,-289.88 511.62,-286.92 511.62,-283.96 511.62,-283.96 511.62,-278.04 511.62,-278.04 511.62,-275.08 514.58,-272.12 517.54,-272.12 517.54,-272.12 569.71,-272.12 569.71,-272.12 572.67,-272.12 575.62,-275.08 575.62,-278.04 575.62,-278.04 575.62,-283.96 575.62,-283.96 575.62,-286.92 572.67,-289.88 569.71,-289.88"/>
<text text-anchor="start" x="519.62" y="-277.32" font-family="Helvetica,sans-Serif" font-size="9.00">AlertSlice.ts</text>
</a>
</g>
</g>
<!-- src/Components/RemoveWarn.tsx&#45;&gt;src/Components/redux/AlertSlice.ts -->
<g id="edge36" class="edge">
<title>src/Components/RemoveWarn.tsx&#45;&gt;src/Components/redux/AlertSlice.ts</title>
<path fill="none" stroke="#000000" stroke-width="2" stroke-opacity="0.200000" d="M474.83,-285.95C483.9,-285.29 493.47,-284.59 502.48,-283.93"/>
<polygon fill="#000000" fill-opacity="0.200000" stroke="#000000" stroke-width="2" stroke-opacity="0.200000" points="502.42,-285.82 508.25,-283.29 502.11,-281.63 502.42,-285.82"/>
</g>
<!-- src/Components/ServerStateCard.tsx&#45;&gt;src/Components/redux/stateSelector.ts -->
<g id="edge39" class="edge">
<title>src/Components/ServerStateCard.tsx&#45;&gt;src/Components/redux/stateSelector.ts</title>
<path fill="none" stroke="#000000" stroke-width="2" stroke-opacity="0.200000" d="M475.45,-134.24C478.04,-135.86 480.43,-137.77 482.5,-140 493.64,-152.02 479.27,-164.06 490.5,-176 492.25,-177.87 494.22,-179.5 496.34,-180.94"/>
<polygon fill="#000000" fill-opacity="0.200000" stroke="#000000" stroke-width="2" stroke-opacity="0.200000" points="495.75,-183.09 502.03,-184.1 497.75,-179.4 495.75,-183.09"/>
</g>
<!-- src/Components/ServerStateCard.tsx&#45;&gt;src/Components/utils.ts -->
<g id="edge41" class="edge">
<title>src/Components/ServerStateCard.tsx&#45;&gt;src/Components/utils.ts</title>
<path fill="none" stroke="#000000" stroke-width="2" stroke-opacity="0.200000" d="M476.36,-134.14C478.66,-135.79 480.75,-137.73 482.5,-140 496.69,-158.4 476.01,-330.83 490.5,-349 494.86,-354.46 501.09,-357.93 507.75,-360.1"/>
<polygon fill="#000000" fill-opacity="0.200000" stroke="#000000" stroke-width="2" stroke-opacity="0.200000" points="507.96,-362.81 514.29,-362.21 508.97,-358.73 507.96,-362.81"/>
</g>
<!-- src/Components/redux/webSocketSlice.ts -->
<g id="node22" class="node">
<title>src/Components/redux/webSocketSlice.ts</title>
<g id="a_node22"><a xlink:href="src/Components/redux/webSocketSlice.ts" xlink:title="webSocketSlice.ts">
<path fill="#ddfeff" stroke="black" d="M582.83,-169.88C582.83,-169.88 504.42,-169.88 504.42,-169.88 501.46,-169.88 498.5,-166.92 498.5,-163.96 498.5,-163.96 498.5,-158.04 498.5,-158.04 498.5,-155.08 501.46,-152.12 504.42,-152.12 504.42,-152.12 582.83,-152.12 582.83,-152.12 585.79,-152.12 588.75,-155.08 588.75,-158.04 588.75,-158.04 588.75,-163.96 588.75,-163.96 588.75,-166.92 585.79,-169.88 582.83,-169.88"/>
<text text-anchor="start" x="506.5" y="-157.32" font-family="Helvetica,sans-Serif" font-size="9.00">webSocketSlice.ts</text>
</a>
</g>
</g>
<!-- src/Components/ServerStateCard.tsx&#45;&gt;src/Components/redux/webSocketSlice.ts -->
<g id="edge40" class="edge">
<title>src/Components/ServerStateCard.tsx&#45;&gt;src/Components/redux/webSocketSlice.ts</title>
<path fill="none" stroke="#000000" stroke-width="2" stroke-opacity="0.200000" d="M469.04,-134.29C473.67,-135.95 478.26,-137.85 482.5,-140 486.46,-142.01 486.52,-144.02 490.5,-146 492.25,-146.87 494.05,-147.7 495.9,-148.48"/>
<polygon fill="#000000" fill-opacity="0.200000" stroke="#000000" stroke-width="2" stroke-opacity="0.200000" points="495.8,-150.47 502.15,-150.67 497.31,-146.55 495.8,-150.47"/>
</g>
<!-- src/Components/UrlCard.tsx&#45;&gt;src/Components/utils.ts -->
<g id="edge42" class="edge">
<title>src/Components/UrlCard.tsx&#45;&gt;src/Components/utils.ts</title>
<path fill="none" stroke="#000000" stroke-width="2" stroke-opacity="0.200000" d="M463.34,-352.86C477.07,-354.62 493.4,-356.71 507.67,-358.53"/>
<polygon fill="#000000" fill-opacity="0.200000" stroke="#000000" stroke-width="2" stroke-opacity="0.200000" points="507.02,-360.95 513.24,-359.63 507.55,-356.78 507.02,-360.95"/>
</g>
<!-- src/store.ts&#45;&gt;src/Components/redux/ChannelSlice.ts -->
<g id="edge48" class="edge">
<title>src/store.ts&#45;&gt;src/Components/redux/ChannelSlice.ts</title>
<path fill="none" stroke="#000000" stroke-width="2" stroke-opacity="0.200000" d="M516.42,-414.43C503.58,-412.47 490.25,-407.37 486.5,-395 481.57,-378.73 481.57,-258.27 486.5,-242 488.05,-236.88 491.22,-232.97 495.31,-229.98"/>
<polygon fill="#000000" fill-opacity="0.200000" stroke="#000000" stroke-width="2" stroke-opacity="0.200000" points="496.69,-231.51 500.93,-226.78 494.66,-227.83 496.69,-231.51"/>
</g>
<!-- src/store.ts&#45;&gt;src/Components/redux/LoadSlice.ts -->
<g id="edge50" class="edge">
<title>src/store.ts&#45;&gt;src/Components/redux/LoadSlice.ts</title>
<path fill="none" stroke="#000000" stroke-width="2" stroke-opacity="0.200000" d="M516.42,-414.43C503.58,-412.47 490.25,-407.37 486.5,-395 482.54,-381.92 482.54,-285.08 486.5,-272 488.82,-264.35 494.75,-259.39 501.96,-256.19"/>
<polygon fill="#000000" fill-opacity="0.200000" stroke="#000000" stroke-width="2" stroke-opacity="0.200000" points="503.19,-257.31 508.18,-253.38 501.82,-253.33 503.19,-257.31"/>
</g>
<!-- src/store.ts&#45;&gt;src/Components/redux/AlertSlice.ts -->
<g id="edge47" class="edge">
<title>src/store.ts&#45;&gt;src/Components/redux/AlertSlice.ts</title>
<path fill="none" stroke="#000000" stroke-width="2" stroke-opacity="0.200000" d="M516.42,-414.43C503.58,-412.47 490.25,-407.37 486.5,-395 483.51,-385.11 483.51,-311.89 486.5,-302 488.96,-293.88 495.49,-288.79 503.3,-285.63"/>
<polygon fill="#000000" fill-opacity="0.200000" stroke="#000000" stroke-width="2" stroke-opacity="0.200000" points="504.34,-286.87 509.43,-283.06 503.07,-282.87 504.34,-286.87"/>
</g>
<!-- src/Components/redux/TreeSlice.ts -->
<g id="node20" class="node">
<title>src/Components/redux/TreeSlice.ts</title>
<g id="a_node20"><a xlink:href="src/Components/redux/TreeSlice.ts" xlink:title="TreeSlice.ts">
<path fill="#ddfeff" stroke="black" d="M569.71,-139.88C569.71,-139.88 517.54,-139.88 517.54,-139.88 514.58,-139.88 511.62,-136.92 511.62,-133.96 511.62,-133.96 511.62,-128.04 511.62,-128.04 511.62,-125.08 514.58,-122.12 517.54,-122.12 517.54,-122.12 569.71,-122.12 569.71,-122.12 572.67,-122.12 575.62,-125.08 575.62,-128.04 575.62,-128.04 575.62,-133.96 575.62,-133.96 575.62,-136.92 572.67,-139.88 569.71,-139.88"/>
<text text-anchor="start" x="519.62" y="-127.33" font-family="Helvetica,sans-Serif" font-size="9.00">TreeSlice.ts</text>
</a>
</g>
</g>
<!-- src/store.ts&#45;&gt;src/Components/redux/TreeSlice.ts -->
<g id="edge51" class="edge">
<title>src/store.ts&#45;&gt;src/Components/redux/TreeSlice.ts</title>
<path fill="none" stroke="#000000" stroke-width="2" stroke-opacity="0.200000" d="M516.42,-414.43C503.58,-412.47 490.25,-407.37 486.5,-395 482.59,-382.08 482.59,-164.92 486.5,-152 488.96,-143.88 495.49,-138.79 503.3,-135.63"/>
<polygon fill="#000000" fill-opacity="0.200000" stroke="#000000" stroke-width="2" stroke-opacity="0.200000" points="504.34,-136.87 509.43,-133.06 503.07,-132.87 504.34,-136.87"/>
</g>
<!-- src/store.ts&#45;&gt;src/Components/redux/webSocketSlice.ts -->
<g id="edge52" class="edge">
<title>src/store.ts&#45;&gt;src/Components/redux/webSocketSlice.ts</title>
<path fill="none" stroke="#000000" stroke-width="2" stroke-opacity="0.200000" d="M516.42,-414.43C503.58,-412.47 490.25,-407.37 486.5,-395 483.07,-383.67 483.07,-193.33 486.5,-182 487.51,-178.67 489.2,-175.85 491.39,-173.46"/>
<polygon fill="#000000" fill-opacity="0.200000" stroke="#000000" stroke-width="2" stroke-opacity="0.200000" points="492.78,-174.46 496.2,-169.1 490.19,-171.16 492.78,-174.46"/>
</g>
<!-- src/Components/redux/DirectorySlice.ts -->
<g id="node23" class="node">
<title>src/Components/redux/DirectorySlice.ts</title>
<g id="a_node23"><a xlink:href="src/Components/redux/DirectorySlice.ts" xlink:title="DirectorySlice.ts">
<path fill="#ddfeff" stroke="black" d="M578.71,-319.88C578.71,-319.88 508.54,-319.88 508.54,-319.88 505.58,-319.88 502.62,-316.92 502.62,-313.96 502.62,-313.96 502.62,-308.04 502.62,-308.04 502.62,-305.08 505.58,-302.12 508.54,-302.12 508.54,-302.12 578.71,-302.12 578.71,-302.12 581.67,-302.12 584.62,-305.08 584.62,-308.04 584.62,-308.04 584.62,-313.96 584.62,-313.96 584.62,-316.92 581.67,-319.88 578.71,-319.88"/>
<text text-anchor="start" x="510.62" y="-307.32" font-family="Helvetica,sans-Serif" font-size="9.00">DirectorySlice.ts</text>
</a>
</g>
</g>
<!-- src/store.ts&#45;&gt;src/Components/redux/DirectorySlice.ts -->
<g id="edge49" class="edge">
<title>src/store.ts&#45;&gt;src/Components/redux/DirectorySlice.ts</title>
<path fill="none" stroke="#000000" stroke-width="2" stroke-opacity="0.200000" d="M516.31,-411.73C507.48,-409.69 498.03,-406.38 490.5,-401 487.89,-399.14 487.43,-398.07 486.5,-395 482.31,-381.18 482.31,-343.82 486.5,-330 487.96,-325.19 490.89,-321.51 494.68,-318.72"/>
<polygon fill="#000000" fill-opacity="0.200000" stroke="#000000" stroke-width="2" stroke-opacity="0.200000" points="496.04,-320.28 500.32,-315.58 494.04,-316.59 496.04,-320.28"/>
</g>
<!-- src/Components/redux/stateSelector.ts&#45;&gt;src/store.ts -->
<g id="edge43" class="edge">
<title>src/Components/redux/stateSelector.ts&#45;&gt;src/store.ts</title>
<path fill="none" stroke="#000000" stroke-width="2" stroke-opacity="0.200000" d="M504.1,-195.31C495.94,-198.45 489.04,-203.61 486.5,-212 483.55,-221.73 483.55,-385.27 486.5,-395 489.4,-404.57 498.03,-409.79 507.73,-412.57"/>
<polygon fill="#000000" fill-opacity="0.200000" stroke="#000000" stroke-width="2" stroke-opacity="0.200000" points="508.12,-415.23 514.42,-414.43 509,-411.12 508.12,-415.23"/>
</g>
<!-- src/Components/FilterDirTree.tsx&#45;&gt;src/store.ts -->
<g id="edge19" class="edge">
<title>src/Components/FilterDirTree.tsx&#45;&gt;src/store.ts</title>
<path fill="none" stroke="#000000" stroke-width="2" stroke-opacity="0.200000" d="M362.92,-348.17C364.98,-349.31 366.95,-350.58 368.75,-352 377.37,-358.8 372.92,-366.48 381.75,-373 418.95,-400.46 472.58,-410 507.52,-413.29"/>
<polygon fill="#000000" fill-opacity="0.200000" stroke="#000000" stroke-width="2" stroke-opacity="0.200000" points="507.26,-415.63 513.41,-414.04 507.61,-411.44 507.26,-415.63"/>
</g>
<!-- src/Components/FilterDirTree.tsx&#45;&gt;src/Components/redux/stateSelector.ts -->
<g id="edge21" class="edge">
<title>src/Components/FilterDirTree.tsx&#45;&gt;src/Components/redux/stateSelector.ts</title>
<path fill="none" stroke="#000000" stroke-width="2" stroke-opacity="0.200000" d="M365.14,-329.65C366.46,-328.56 367.68,-327.35 368.75,-326 388.46,-301.18 358.34,-205.36 381.75,-184 397.81,-169.34 453.77,-175.08 495.2,-181.85"/>
<polygon fill="#000000" fill-opacity="0.200000" stroke="#000000" stroke-width="2" stroke-opacity="0.200000" points="495.8,-184.42 502.06,-183.34 496.5,-180.27 495.8,-184.42"/>
</g>
<!-- src/Components/FilterDirTree.tsx&#45;&gt;src/Components/utils.ts -->
<g id="edge23" class="edge">
<title>src/Components/FilterDirTree.tsx&#45;&gt;src/Components/utils.ts</title>
<path fill="none" stroke="#000000" stroke-width="2" stroke-opacity="0.200000" d="M361.3,-348.21C363.88,-349.35 366.4,-350.61 368.75,-352 375.52,-355.99 374.43,-361.14 381.75,-364 422.7,-380.01 474.13,-375.95 507.66,-370.45"/>
<polygon fill="#000000" fill-opacity="0.200000" stroke="#000000" stroke-width="2" stroke-opacity="0.200000" points="508.65,-372.06 514.19,-368.96 507.92,-367.92 508.65,-372.06"/>
</g>
<!-- src/Components/OperationButtons.tsx -->
<g id="node19" class="node">
<title>src/Components/OperationButtons.tsx</title>
<g id="a_node19"><a xlink:href="src/Components/OperationButtons.tsx" xlink:title="OperationButtons.tsx">
<path fill="#bbfeff" stroke="black" d="M476.58,-267.88C476.58,-267.88 387.67,-267.88 387.67,-267.88 384.71,-267.88 381.75,-264.92 381.75,-261.96 381.75,-261.96 381.75,-256.04 381.75,-256.04 381.75,-253.08 384.71,-250.12 387.67,-250.12 387.67,-250.12 476.58,-250.12 476.58,-250.12 479.54,-250.12 482.5,-253.08 482.5,-256.04 482.5,-256.04 482.5,-261.96 482.5,-261.96 482.5,-264.92 479.54,-267.88 476.58,-267.88"/>
<text text-anchor="start" x="389.75" y="-255.32" font-family="Helvetica,sans-Serif" font-size="9.00">OperationButtons.tsx</text>
</a>
</g>
</g>
<!-- src/Components/FilterDirTree.tsx&#45;&gt;src/Components/OperationButtons.tsx -->
<g id="edge20" class="edge">
<title>src/Components/FilterDirTree.tsx&#45;&gt;src/Components/OperationButtons.tsx</title>
<path fill="none" stroke="#000000" stroke-width="2" stroke-opacity="0.200000" d="M364.54,-329.69C366.06,-328.59 367.48,-327.37 368.75,-326 384.95,-308.54 365.33,-291.26 381.75,-274 381.88,-273.86 382.01,-273.73 382.15,-273.59"/>
<polygon fill="#000000" fill-opacity="0.200000" stroke="#000000" stroke-width="2" stroke-opacity="0.200000" points="383.45,-274.66 386.87,-269.3 380.85,-271.36 383.45,-274.66"/>
</g>
<!-- src/Components/FilterDirTree.tsx&#45;&gt;src/Components/redux/TreeSlice.ts -->
<g id="edge22" class="edge">
<title>src/Components/FilterDirTree.tsx&#45;&gt;src/Components/redux/TreeSlice.ts</title>
<path fill="none" stroke="#000000" stroke-width="2" stroke-opacity="0.200000" d="M330.13,-329.72C333,-290.39 346.28,-138.29 381.75,-110 416.76,-82.08 438.35,-102.51 482.5,-110 492.87,-111.76 503.84,-115.11 513.52,-118.63"/>
<polygon fill="#000000" fill-opacity="0.200000" stroke="#000000" stroke-width="2" stroke-opacity="0.200000" points="513.3,-120.55 519.66,-120.73 514.8,-116.63 513.3,-120.55"/>
</g>
<!-- src/Components/ErrorAlert.tsx -->
<g id="node16" class="node">
<title>src/Components/ErrorAlert.tsx</title>
<g id="a_node16"><a xlink:href="src/Components/ErrorAlert.tsx" xlink:title="ErrorAlert.tsx">
<path fill="#bbfeff" stroke="black" d="M460.46,-207.88C460.46,-207.88 403.79,-207.88 403.79,-207.88 400.83,-207.88 397.88,-204.92 397.88,-201.96 397.88,-201.96 397.88,-196.04 397.88,-196.04 397.88,-193.08 400.83,-190.12 403.79,-190.12 403.79,-190.12 460.46,-190.12 460.46,-190.12 463.42,-190.12 466.38,-193.08 466.38,-196.04 466.38,-196.04 466.38,-201.96 466.38,-201.96 466.38,-204.92 463.42,-207.88 460.46,-207.88"/>
<text text-anchor="start" x="405.88" y="-195.32" font-family="Helvetica,sans-Serif" font-size="9.00">ErrorAlert.tsx</text>
</a>
</g>
</g>
<!-- src/Components/ErrorAlert.tsx&#45;&gt;src/store.ts -->
<g id="edge15" class="edge">
<title>src/Components/ErrorAlert.tsx&#45;&gt;src/store.ts</title>
<path fill="none" stroke="#000000" stroke-width="2" stroke-opacity="0.200000" d="M466.86,-203.21C472.91,-205.48 478.55,-208.9 482.5,-214 495.24,-230.44 477.49,-384.77 490.5,-401 494.87,-406.45 501.11,-409.91 507.77,-412.08"/>
<polygon fill="#000000" fill-opacity="0.200000" stroke="#000000" stroke-width="2" stroke-opacity="0.200000" points="507.98,-414.79 514.31,-414.2 508.99,-410.72 507.98,-414.79"/>
</g>
<!-- src/Components/ErrorAlert.tsx&#45;&gt;src/Components/redux/stateSelector.ts -->
<g id="edge17" class="edge">
<title>src/Components/ErrorAlert.tsx&#45;&gt;src/Components/redux/stateSelector.ts</title>
<path fill="none" stroke="#000000" stroke-width="2" stroke-opacity="0.200000" d="M466.87,-196.53C475.92,-195.87 485.86,-195.15 495.49,-194.44"/>
<polygon fill="#000000" fill-opacity="0.200000" stroke="#000000" stroke-width="2" stroke-opacity="0.200000" points="495.37,-196.34 501.2,-193.81 495.07,-192.15 495.37,-196.34"/>
</g>
<!-- src/Components/ErrorAlert.tsx&#45;&gt;src/Components/redux/AlertSlice.ts -->
<g id="edge16" class="edge">
<title>src/Components/ErrorAlert.tsx&#45;&gt;src/Components/redux/AlertSlice.ts</title>
<path fill="none" stroke="#000000" stroke-width="2" stroke-opacity="0.200000" d="M466.69,-203.65C472.68,-205.9 478.33,-209.19 482.5,-214 497.82,-231.67 475.05,-248.45 490.5,-266 493.93,-269.89 498.29,-272.81 503.04,-274.98"/>
<polygon fill="#000000" fill-opacity="0.200000" stroke="#000000" stroke-width="2" stroke-opacity="0.200000" points="502.92,-276.9 509.27,-276.98 504.35,-272.96 502.92,-276.9"/>
</g>
<!-- src/Components/styles/alert.css -->
<g id="node18" class="node">
<title>src/Components/styles/alert.css</title>
<g id="a_node18"><a xlink:href="src/Components/styles/alert.css" xlink:title="alert.css">
<path fill="#ffffcc" stroke="black" d="M564.71,-79.88C564.71,-79.88 522.54,-79.88 522.54,-79.88 519.58,-79.88 516.62,-76.92 516.62,-73.96 516.62,-73.96 516.62,-68.04 516.62,-68.04 516.62,-65.08 519.58,-62.12 522.54,-62.12 522.54,-62.12 564.71,-62.12 564.71,-62.12 567.67,-62.12 570.62,-65.08 570.62,-68.04 570.62,-68.04 570.62,-73.96 570.62,-73.96 570.62,-76.92 567.67,-79.88 564.71,-79.88"/>
<text text-anchor="start" x="526.75" y="-67.33" font-family="Helvetica,sans-Serif" font-size="9.00">alert.css</text>
</a>
</g>
</g>
<!-- src/Components/ErrorAlert.tsx&#45;&gt;src/Components/styles/alert.css -->
<g id="edge18" class="edge">
<title>src/Components/ErrorAlert.tsx&#45;&gt;src/Components/styles/alert.css</title>
<path fill="none" stroke="#000000" stroke-width="2" stroke-opacity="0.200000" d="M458.36,-189.7C467.37,-185.13 476.72,-178.69 482.5,-170 497.16,-147.97 477.22,-133.89 490.5,-111 496.7,-100.31 506.99,-91.5 516.8,-84.89"/>
<polygon fill="#000000" fill-opacity="0.200000" stroke="#000000" stroke-width="2" stroke-opacity="0.200000" points="518.17,-86.25 522.13,-81.28 515.94,-82.7 518.17,-86.25"/>
</g>
<!-- src/Components/OperationButtons.tsx&#45;&gt;src/store.ts -->
<g id="edge30" class="edge">
<title>src/Components/OperationButtons.tsx&#45;&gt;src/store.ts</title>
<path fill="none" stroke="#000000" stroke-width="2" stroke-opacity="0.200000" d="M476.29,-268.19C478.62,-269.83 480.72,-271.75 482.5,-274 500.05,-296.18 472.59,-379.11 490.5,-401 494.92,-406.41 501.19,-409.85 507.85,-412.02"/>
<polygon fill="#000000" fill-opacity="0.200000" stroke="#000000" stroke-width="2" stroke-opacity="0.200000" points="508.06,-414.73 514.39,-414.13 509.07,-410.65 508.06,-414.73"/>
</g>
<!-- src/Components/OperationButtons.tsx&#45;&gt;src/Components/redux/LoadSlice.ts -->
<g id="edge32" class="edge">
<title>src/Components/OperationButtons.tsx&#45;&gt;src/Components/redux/LoadSlice.ts</title>
<path fill="none" stroke="#000000" stroke-width="2" stroke-opacity="0.200000" d="M482.75,-255.37C488.98,-254.92 495.31,-254.46 501.4,-254.01"/>
<polygon fill="#000000" fill-opacity="0.200000" stroke="#000000" stroke-width="2" stroke-opacity="0.200000" points="501.27,-255.91 507.1,-253.38 500.97,-251.72 501.27,-255.91"/>
</g>
<!-- src/Components/OperationButtons.tsx&#45;&gt;src/Components/redux/stateSelector.ts -->
<g id="edge33" class="edge">
<title>src/Components/OperationButtons.tsx&#45;&gt;src/Components/redux/stateSelector.ts</title>
<path fill="none" stroke="#000000" stroke-width="2" stroke-opacity="0.200000" d="M475.48,-249.79C478.06,-248.16 480.44,-246.25 482.5,-244 494.16,-231.27 478.75,-218.64 490.5,-206 492.27,-204.09 494.27,-202.42 496.43,-200.96"/>
<polygon fill="#000000" fill-opacity="0.200000" stroke="#000000" stroke-width="2" stroke-opacity="0.200000" points="497.96,-202.44 502.25,-197.75 495.97,-198.74 497.96,-202.44"/>
</g>
<!-- src/Components/OperationButtons.tsx&#45;&gt;src/Components/utils.ts -->
<g id="edge34" class="edge">
<title>src/Components/OperationButtons.tsx&#45;&gt;src/Components/utils.ts</title>
<path fill="none" stroke="#000000" stroke-width="2" stroke-opacity="0.200000" d="M476.18,-268.28C478.53,-269.9 480.67,-271.79 482.5,-274 503.87,-299.83 468.72,-323.52 490.5,-349 495,-354.26 501.23,-357.65 507.83,-359.81"/>
<polygon fill="#000000" fill-opacity="0.200000" stroke="#000000" stroke-width="2" stroke-opacity="0.200000" points="507.96,-362.51 514.29,-361.94 508.98,-358.44 507.96,-362.51"/>
</g>
<!-- src/Components/OperationButtons.tsx&#45;&gt;src/Components/redux/AlertSlice.ts -->
<g id="edge31" class="edge">
<title>src/Components/OperationButtons.tsx&#45;&gt;src/Components/redux/AlertSlice.ts</title>
<path fill="none" stroke="#000000" stroke-width="2" stroke-opacity="0.200000" d="M479.56,-268.33C487.27,-269.88 495.21,-271.47 502.73,-272.99"/>
<polygon fill="#000000" fill-opacity="0.200000" stroke="#000000" stroke-width="2" stroke-opacity="0.200000" points="503.05,-275.59 509.35,-274.72 503.88,-271.48 503.05,-275.59"/>
</g>
<!-- src/index.css -->
<g id="node24" class="node">
<title>src/index.css</title>
<g id="a_node24"><a xlink:href="src/index.css" xlink:title="index.css">
<path fill="#ffffcc" stroke="black" d="M166.83,-437.88C166.83,-437.88 124.42,-437.88 124.42,-437.88 121.46,-437.88 118.5,-434.92 118.5,-431.96 118.5,-431.96 118.5,-426.04 118.5,-426.04 118.5,-423.08 121.46,-420.12 124.42,-420.12 124.42,-420.12 166.83,-420.12 166.83,-420.12 169.79,-420.12 172.75,-423.08 172.75,-426.04 172.75,-426.04 172.75,-431.96 172.75,-431.96 172.75,-434.92 169.79,-437.88 166.83,-437.88"/>
<text text-anchor="start" x="126.5" y="-425.32" font-family="Helvetica,sans-Serif" font-size="9.00">index.css</text>
</a>
</g>
</g>
<!-- src/index.tsx -->
<g id="node25" class="node">
<title>src/index.tsx</title>
<g id="a_node25"><a xlink:href="src/index.tsx" xlink:title="index.tsx">
<path fill="#bbfeff" stroke="black" d="M81.83,-377.88C81.83,-377.88 39.67,-377.88 39.67,-377.88 36.71,-377.88 33.75,-374.92 33.75,-371.96 33.75,-371.96 33.75,-366.04 33.75,-366.04 33.75,-363.08 36.71,-360.12 39.67,-360.12 39.67,-360.12 81.83,-360.12 81.83,-360.12 84.79,-360.12 87.75,-363.08 87.75,-366.04 87.75,-366.04 87.75,-371.96 87.75,-371.96 87.75,-374.92 84.79,-377.88 81.83,-377.88"/>
<text text-anchor="start" x="42.75" y="-365.32" font-family="Helvetica,sans-Serif" font-size="9.00">index.tsx</text>
</a>
</g>
</g>
<!-- src/index.tsx&#45;&gt;src/App.tsx -->
<g id="edge44" class="edge">
<title>src/index.tsx&#45;&gt;src/App.tsx</title>
<path fill="none" stroke="#000000" stroke-width="2" stroke-opacity="0.200000" d="M73.27,-359.82C86.93,-348.95 109.86,-330.69 126.03,-317.81"/>
<polygon fill="#000000" fill-opacity="0.200000" stroke="#000000" stroke-width="2" stroke-opacity="0.200000" points="127.55,-318.69 130.93,-313.31 124.93,-315.41 127.55,-318.69"/>
</g>
<!-- src/index.tsx&#45;&gt;src/store.ts -->
<g id="edge46" class="edge">
<title>src/index.tsx&#45;&gt;src/store.ts</title>
<path fill="none" stroke="#000000" stroke-width="2" stroke-opacity="0.200000" d="M87.84,-376.77C93.7,-378.68 99.85,-380.8 105.5,-383 136.17,-394.93 149.11,-391.1 172.75,-414 178.46,-419.53 173.99,-425.82 180.75,-430 286.2,-495.17 443.85,-451.07 510.76,-427.35"/>
<polygon fill="#000000" fill-opacity="0.200000" stroke="#000000" stroke-width="2" stroke-opacity="0.200000" points="512.29,-429.3 517.21,-425.29 510.86,-425.35 512.29,-429.3"/>
</g>
<!-- src/index.tsx&#45;&gt;src/index.css -->
<g id="edge45" class="edge">
<title>src/index.tsx&#45;&gt;src/index.css</title>
<path fill="none" stroke="#000000" stroke-width="2" stroke-opacity="0.200000" d="M88.11,-373.62C94.35,-375.68 100.6,-378.67 105.5,-383 115.79,-392.08 109.65,-400.52 118.5,-411 119.45,-412.13 120.49,-413.22 121.59,-414.26"/>
<polygon fill="#000000" fill-opacity="0.200000" stroke="#000000" stroke-width="2" stroke-opacity="0.200000" points="120.34,-416.59 126.32,-418.76 123,-413.34 120.34,-416.59"/>
</g>
<!-- src/react&#45;app&#45;env.d.ts -->
<g id="node26" class="node">
<title>src/react&#45;app&#45;env.d.ts</title>
<g id="a_node26"><a xlink:href="src/react-app-env.d.ts" xlink:title="react&#45;app&#45;env.d.ts">
<path fill="#ccffcc" stroke="black" d="M99.58,-190.88C99.58,-190.88 21.92,-190.88 21.92,-190.88 18.96,-190.88 16,-187.92 16,-184.96 16,-184.96 16,-179.04 16,-179.04 16,-176.08 18.96,-173.12 21.92,-173.12 21.92,-173.12 99.58,-173.12 99.58,-173.12 102.54,-173.12 105.5,-176.08 105.5,-179.04 105.5,-179.04 105.5,-184.96 105.5,-184.96 105.5,-187.92 102.54,-190.88 99.58,-190.88"/>
<text text-anchor="start" x="24" y="-178.32" font-family="Helvetica,sans-Serif" font-size="9.00">react&#45;app&#45;env.d.ts</text>
</a>
</g>
</g>
<!-- src/types/global.d.ts -->
<g id="node27" class="node">
<title>src/types/global.d.ts</title>
<g id="a_node27"><a xlink:href="src/types/global.d.ts" xlink:title="global.d.ts">
<path fill="#ccffcc" stroke="black" d="M83.83,-411.88C83.83,-411.88 37.67,-411.88 37.67,-411.88 34.71,-411.88 31.75,-408.92 31.75,-405.96 31.75,-405.96 31.75,-400.04 31.75,-400.04 31.75,-397.08 34.71,-394.12 37.67,-394.12 37.67,-394.12 83.83,-394.12 83.83,-394.12 86.79,-394.12 89.75,-397.08 89.75,-400.04 89.75,-400.04 89.75,-405.96 89.75,-405.96 89.75,-408.92 86.79,-411.88 83.83,-411.88"/>
<text text-anchor="start" x="39.75" y="-399.32" font-family="Helvetica,sans-Serif" font-size="9.00">global.d.ts</text>
</a>
</g>
</g>
</g>
</svg>
